<svg width="203" height="34" viewBox="0 0 203 34" fill="none" xmlns="http://www.w3.org/2000/svg">
<path d="M56.5023 7.21191C56.9129 7.21191 57.3236 7.23405 57.7417 7.27832C60.1683 7.4923 61.236 8.41462 61.7959 9.38121C62.5127 10.5839 62.6023 12.0153 62.6396 13.3509V15.7932C62.6396 16.1547 62.6396 16.5015 62.6172 16.863C62.4903 19.6079 61.7287 20.8106 60.5565 21.5337C59.4067 22.242 58.2793 22.3084 56.9801 22.3453H42.2266V7.21191H56.5023ZM46.9976 18.7003H54.8074C54.9791 18.7003 55.4122 18.7224 55.9124 18.6339C57.779 18.3314 57.8686 16.9368 57.8836 15.3947V13.5058C57.8388 12.7975 57.7716 12.1777 57.234 11.6169C56.6068 10.975 55.6511 10.9307 54.673 10.8864H46.9976V18.7003Z" fill="#FFFFFF"></path>
<path d="M79.1863 7.21191L87.8174 22.3453H82.5013L81.0678 19.6448H71.1972L69.7413 22.3453H64.582L73.0937 7.21191H79.1863ZM72.9145 16.4498H79.358L76.1923 10.5544L72.9145 16.4498Z" fill="#FFFFFF"></path>
<path d="M90.0504 22.3453V7.21191H104.192C105.581 7.21191 107.141 7.23405 108.246 8.20064C108.813 8.65073 109.351 9.50664 109.351 11.0709C109.351 12.7458 108.963 13.4468 108.328 13.9411C107.85 14.3248 107.268 14.4798 106.723 14.6273C107.484 14.7306 108.194 14.8413 108.828 15.3136C109.523 15.8079 109.933 16.5384 109.933 18.3388C109.933 19.7997 109.478 20.5449 109.023 21.0614C108.911 21.209 108.679 21.4451 108.306 21.7034C107.372 22.3453 106.223 22.4117 104.013 22.3453H90.043H90.0504ZM94.6721 18.9364H103.848C104.453 18.8331 104.909 18.7003 105.125 18.1248C105.147 18.0362 105.215 17.8665 105.215 17.6083C105.215 17.2689 105.103 17.0254 104.931 16.7745C104.453 16.1547 103.826 16.1768 103.109 16.1916H94.6721V18.9364ZM94.6945 13.1664H102.676C103.37 13.1885 103.953 13.2107 104.371 12.6499C104.461 12.5392 104.655 12.2662 104.655 11.853C104.655 11.5726 104.543 11.2922 104.371 11.0783C103.96 10.5175 103.438 10.5175 102.788 10.4954H94.6945V13.1516V13.1664Z" fill="#FFFFFF"></path>
<path d="M130.234 7.21191V10.5544H117.788V13.0852H129.562V16.258H117.788V18.9143H130.234V22.3453H113.121V7.21191H130.234Z" fill="#FFFFFF"></path>
<path d="M148.197 7.21191C148.608 7.21191 149.019 7.23405 149.429 7.27832C151.856 7.4923 152.923 8.41462 153.483 9.38121C154.2 10.5839 154.282 12.0153 154.327 13.3509V15.7932C154.327 16.1547 154.327 16.5015 154.305 16.863C154.178 19.6079 153.416 20.8106 152.244 21.5337C151.094 22.242 149.967 22.3084 148.668 22.3453H133.914V7.21191H148.19H148.197ZM138.693 18.7003H146.502C146.674 18.7003 147.107 18.7224 147.607 18.6339C149.474 18.3314 149.564 16.9368 149.579 15.3947V13.5058C149.534 12.7975 149.467 12.1777 148.929 11.6169C148.302 10.975 147.346 10.9307 146.368 10.8864H138.693V18.7003Z" fill="#FFFFFF"></path>
<path d="M170.878 7.21191L179.509 22.3453H174.193L172.759 19.6448H162.889L161.433 22.3453H156.273L164.778 7.21191H170.87H170.878ZM164.606 16.4498H171.049L167.884 10.5544L164.606 16.4498Z" fill="#FFFFFF"></path>
<path d="M189.308 7.21191C190.981 9.22626 192.646 11.2185 194.274 13.2549C195.744 15.0996 197.2 16.9811 198.656 18.87L198.574 11.9268V7.21191H203.002V22.3453H195.476C193.676 20.1834 191.877 18.0141 190.115 15.7858C188.816 14.133 187.531 12.4433 186.277 10.7684V22.3453H181.805V7.21191H189.308Z" fill="#FFFFFF"></path>
<path d="M45.1448 26.8505V31.4964H44.3981V26.8505H42.2266V26.3008H47.2935V26.8505H45.1448Z" fill="#FFFFFF"></path>
<path d="M49.4264 26.7978V28.5673H52.8018V29.0642H49.4264V30.9994H52.9466V31.4964H48.6797V26.3008H52.9466V26.7978H49.4264Z" fill="#FFFFFF"></path>
<path d="M58.6301 26.3008V29.9678C58.6301 30.5777 58.4854 30.9994 58.2035 31.2178C57.9139 31.4437 57.3805 31.5491 56.5957 31.5491C55.8109 31.5491 55.2547 31.4587 54.9576 31.2629C54.6604 31.0747 54.5156 30.7283 54.5156 30.2163C54.5156 29.9829 54.5156 29.772 54.5309 29.5988H55.2623V30.0958C55.2623 30.5175 55.3385 30.7886 55.4833 30.894C55.6281 30.9994 55.9862 31.0521 56.5653 31.0521C57.1443 31.0521 57.4948 30.9843 57.6472 30.8413C57.7996 30.6982 57.8758 30.3744 57.8758 29.8699V26.3008H58.6225H58.6301Z" fill="#FFFFFF"></path>
<path d="M61.6412 26.3008H60.8945V31.4964H61.6412V26.3008Z" fill="#FFFFFF"></path>
<path d="M63.9336 31.4964V26.3008H67.0119C67.9643 26.3008 68.6043 26.4664 68.9472 26.7902C69.2825 27.114 69.4501 27.7465 69.4501 28.6727C69.4501 29.8022 69.2977 30.5476 69.0005 30.9316C68.7034 31.3081 68.1014 31.4964 67.2023 31.4964H63.9412H63.9336ZM64.6803 30.9994H66.8442C67.6367 30.9994 68.1548 30.8789 68.3834 30.6229C68.612 30.3744 68.7262 29.8172 68.7262 28.9588C68.7262 28.0176 68.6272 27.4152 68.4291 27.1667C68.231 26.9182 67.751 26.7902 66.9966 26.7902H64.6803V30.9919V30.9994Z" fill="#FFFFFF"></path>
<path d="M73.8464 26.2485C75.1036 26.2485 75.8884 26.3916 76.2008 26.6777C76.5132 26.9639 76.6732 27.6792 76.6732 28.8313C76.6732 30.0662 76.5208 30.8267 76.2236 31.1203C75.9189 31.4065 75.134 31.5571 73.8464 31.5571C72.5587 31.5571 71.7815 31.414 71.4767 31.1279C71.1719 30.8417 71.0195 30.1038 71.0195 28.9066V28.0482C71.0272 27.3554 71.2253 26.8886 71.6215 26.6326C72.0177 26.3841 72.7568 26.2561 73.8464 26.2561M73.8464 26.753C72.7949 26.753 72.1777 26.8434 72.0024 27.0241C71.8272 27.2048 71.7358 27.8373 71.7358 28.9066C71.7358 29.9758 71.8272 30.6083 72.0024 30.789C72.1777 30.9697 72.7949 31.0601 73.8464 31.0601C74.8978 31.0601 75.515 30.9697 75.6979 30.789C75.8731 30.6083 75.9646 29.9758 75.9646 28.9066V28.0783C75.9646 27.506 75.835 27.1446 75.5912 26.9865C75.3474 26.8359 74.7607 26.753 73.8464 26.753Z" fill="#FFFFFF"></path>
<path d="M83.0831 27.7091H82.3364C82.3364 27.2874 82.245 27.0239 82.0697 26.911C81.8945 26.798 81.4678 26.7378 80.8125 26.7378C80.0277 26.7378 79.5248 26.7905 79.2962 26.9034C79.0676 27.0088 78.9534 27.2498 78.9534 27.6263C78.9534 28.048 79.0448 28.2964 79.22 28.3943C79.3953 28.4847 79.9286 28.5449 80.8125 28.5826C81.8488 28.6202 82.504 28.7181 82.786 28.8913C83.0679 29.0645 83.205 29.441 83.205 30.0358C83.205 30.6759 83.045 31.09 82.7174 31.2783C82.3974 31.4665 81.6811 31.5569 80.5763 31.5569C79.6162 31.5569 78.9838 31.459 78.6638 31.2707C78.3438 31.0825 78.1914 30.6985 78.1914 30.1262V29.8928H78.9305V30.0208C78.9305 30.4876 79.0219 30.7738 79.2048 30.8867C79.3877 30.9997 79.8524 31.0599 80.5992 31.0599C81.4602 31.0599 81.9859 30.9997 82.184 30.8867C82.3821 30.7738 82.4812 30.4726 82.4812 29.9831C82.4812 29.6669 82.4126 29.456 82.2831 29.3506C82.1459 29.2452 81.864 29.185 81.4373 29.1624L80.6601 29.1323L79.921 29.1021C78.7933 29.0419 78.2295 28.5826 78.2295 27.7317C78.2295 27.1444 78.3895 26.7453 78.7248 26.5495C79.0524 26.3537 79.7077 26.2559 80.683 26.2559C81.6583 26.2559 82.3212 26.3462 82.6259 26.5345C82.9307 26.7152 83.0755 27.1143 83.0755 27.7166" fill="#FFFFFF"></path>
<path d="M89.3209 26.3008H88.5742V31.4964H89.3209V26.3008Z" fill="#FFFFFF"></path>
<path d="M93.984 28.9138H96.8337C96.8489 29.0494 96.8489 29.2376 96.8489 29.4786C96.8489 30.4123 96.7041 30.992 96.407 31.2179C96.1098 31.4363 95.3479 31.5493 94.1059 31.5493C92.9325 31.5493 92.1858 31.4212 91.8505 31.1577C91.5153 30.8942 91.3477 30.3068 91.3477 29.3882V28.6202V28.1608C91.3477 27.3928 91.5305 26.8808 91.9039 26.6247C92.2772 26.3687 93.0239 26.2407 94.1516 26.2407C95.2793 26.2407 96.0108 26.3236 96.3384 26.4892C96.6661 26.6549 96.8337 27.0238 96.8337 27.6036V27.7994H96.1022V27.6714C96.1022 27.2497 95.9879 26.9862 95.767 26.8883C95.546 26.7904 94.9669 26.7377 94.0297 26.7377C93.1611 26.7377 92.6201 26.8205 92.4068 26.9786C92.1934 27.1368 92.0791 27.5434 92.0791 28.191V28.8762V29.6216C92.0791 30.2767 92.201 30.6758 92.4449 30.8264C92.6887 30.977 93.3287 31.0523 94.3802 31.0523C95.1803 31.0523 95.6755 30.9845 95.866 30.8415C96.0565 30.6984 96.1479 30.3294 96.1479 29.727C96.1479 29.6819 96.1327 29.5689 96.1098 29.4108H93.9992V28.9138H93.984Z" fill="#FFFFFF"></path>
<path d="M104.446 26.3008V31.4964H103.22L100.431 27.9649L99.9812 27.3775L99.7603 27.0914L99.5317 26.7978H99.5164V26.9935L99.5241 27.1893V27.5809V31.4964H98.7773V26.3008H99.9965L102.427 29.4031L103.059 30.2163L103.38 30.6154L103.684 31.022H103.707L103.7 30.8337V30.6304V30.2464V26.3008H104.446Z" fill="#FFFFFF"></path>
<path d="M108.053 24.8701L108.35 25.2918L106.849 25.8791L106.605 25.5779L108.053 24.8701ZM107.451 31.4964H106.705V26.3008H107.451V31.4964Z" fill="#FFFFFF"></path>
<path d="M110.473 26.7978V28.6124H113.712V29.1094H110.473V31.4964H109.727V26.3008H113.795V26.7978H110.473Z" fill="#FFFFFF"></path>
<path d="M120.096 26.3008H120.843V29.9377C120.843 30.6003 120.676 31.0295 120.333 31.2404C119.99 31.4437 119.281 31.5491 118.199 31.5491C117.186 31.5491 116.492 31.4512 116.127 31.2479C115.761 31.0446 115.578 30.6681 115.578 30.1109V26.3008H116.325V29.9377C116.325 30.4271 116.431 30.7359 116.63 30.8639C116.835 30.9919 117.338 31.0521 118.138 31.0521C119.007 31.0521 119.548 30.9919 119.761 30.8714C119.975 30.7509 120.081 30.4347 120.081 29.9377V26.3008H120.096Z" fill="#FFFFFF"></path>
<path d="M125.468 28.9138H128.318C128.333 29.0494 128.333 29.2376 128.333 29.4786C128.333 30.4123 128.189 30.992 127.891 31.2179C127.594 31.4363 126.832 31.5493 125.59 31.5493C124.417 31.5493 123.67 31.4212 123.335 31.1577C123 30.8942 122.832 30.3068 122.832 29.3882V28.6202V28.1608C122.832 27.3928 123.015 26.8808 123.388 26.6247C123.762 26.3687 124.508 26.2407 125.636 26.2407C126.764 26.2407 127.495 26.3236 127.823 26.4892C128.15 26.6549 128.318 27.0238 128.318 27.6036V27.7994H127.587V27.6714C127.587 27.2497 127.472 26.9862 127.251 26.8883C127.03 26.7904 126.451 26.7377 125.514 26.7377C124.645 26.7377 124.104 26.8205 123.891 26.9786C123.67 27.1368 123.563 27.5434 123.563 28.191V28.8762V29.6216C123.563 30.2767 123.685 30.6758 123.929 30.8264C124.173 30.977 124.813 31.0523 125.865 31.0523C126.665 31.0523 127.16 30.9845 127.35 30.8415C127.541 30.6984 127.632 30.3294 127.632 29.727C127.632 29.6819 127.617 29.5689 127.594 29.4108H125.484V28.9138H125.468Z" fill="#FFFFFF"></path>
<path d="M132.694 26.2485C133.951 26.2485 134.736 26.3916 135.048 26.6777C135.361 26.9639 135.521 27.6792 135.521 28.8313C135.521 30.0662 135.368 30.8267 135.071 31.1203C134.767 31.4065 133.982 31.5571 132.694 31.5571C131.406 31.5571 130.629 31.414 130.324 31.1279C130.02 30.8417 129.867 30.1038 129.867 28.9066V28.0482C129.875 27.3554 130.073 26.8886 130.469 26.6326C130.865 26.3841 131.604 26.2561 132.694 26.2561M132.694 26.753C131.643 26.753 131.025 26.8434 130.85 27.0241C130.675 27.2048 130.583 27.8373 130.583 28.9066C130.583 29.9758 130.675 30.6083 130.85 30.789C131.025 30.9697 131.643 31.0601 132.694 31.0601C133.745 31.0601 134.363 30.9697 134.546 30.789C134.721 30.6083 134.812 29.9758 134.812 28.9066V28.0783C134.812 27.506 134.683 27.1446 134.439 26.9865C134.195 26.8359 133.608 26.753 132.694 26.753Z" fill="#FFFFFF"></path>
<path d="M141.911 27.7091H141.165C141.165 27.2874 141.073 27.0239 140.898 26.911C140.723 26.798 140.296 26.7378 139.641 26.7378C138.856 26.7378 138.353 26.7905 138.125 26.9034C137.896 27.0088 137.782 27.2498 137.782 27.6263C137.782 28.048 137.873 28.2964 138.048 28.3943C138.224 28.4847 138.757 28.5449 139.641 28.5826C140.677 28.6202 141.332 28.7181 141.614 28.8913C141.896 29.0645 142.033 29.441 142.033 30.0358C142.033 30.6759 141.873 31.09 141.553 31.2783C141.233 31.4665 140.517 31.5569 139.412 31.5569C138.452 31.5569 137.82 31.459 137.5 31.2707C137.18 31.0825 137.027 30.6985 137.027 30.1262V29.8928H137.766V30.0208C137.766 30.4876 137.858 30.7738 138.041 30.8867C138.224 30.9997 138.688 31.0599 139.435 31.0599C140.296 31.0599 140.822 30.9997 141.02 30.8867C141.218 30.7738 141.317 30.4726 141.317 29.9831C141.317 29.6669 141.249 29.456 141.119 29.3506C140.982 29.2452 140.7 29.185 140.273 29.1624L139.496 29.1323L138.757 29.1021C137.629 29.0419 137.073 28.5826 137.073 27.7317C137.073 27.1444 137.233 26.7453 137.561 26.5495C137.888 26.3537 138.544 26.2559 139.519 26.2559C140.494 26.2559 141.157 26.3462 141.462 26.5345C141.767 26.7152 141.911 27.1143 141.911 27.7166" fill="#FFFFFF"></path>
<path fill-rule="evenodd" clip-rule="evenodd" d="M-7.43094e-07 17L4.19276 12.8072L7.5701 16.1795L9.27557 14.4714L5.89952 11.1005L11.0199 5.98015L21.2243 16.1691L22.9297 14.4611L12.7266 4.27339L17 -7.43094e-07L21.2183 4.21835L17.8043 7.63756L19.5124 9.34302L22.9251 5.92511L28.0454 11.0454L17.8144 21.2919L19.5225 22.9973L29.7522 12.7522L34 17L29.7396 21.2604L26.3465 17.8724L24.641 19.5805L28.0328 22.9672L22.9124 28.0876L12.6914 17.8821L10.986 19.5901L21.2056 29.7944L17 34L12.765 29.765L16.1116 26.4134L14.4035 24.708L11.0583 28.0583L5.93869 22.9387L16.1027 12.7593L14.3946 11.0538L4.23192 21.2319L-7.43094e-07 17Z" fill="#FFFFFF"></path>
</svg>